#!OML:ASF H:\GeneralSubjects\Female5\Project 1\Capture day 1\Session 1\Female5.ASF
:FULLY-SPECIFIED
:DEGREES
327
root 37.4172 15.7596 4.05528 363.485 248.168 371.778
lowerback 11.4527 0.842944 -1.87924
upperback -10.6993 1.2391 6.31072
thorax -19.2203 1.27481 8.29904
lowerneck -16.2081 3.13839 1.01637
upperneck 31.4391 6.04421 -8.55821
head 13.6984 1.15126 -2.69609
rclavicle -2.08724e-015 0
rhumerus -52.2929 29.1931 -77.6939
rradius 38.9095
rwrist -13.431
rhand -26.8073 -22.1432
rfingers 7.12502
rthumb -0.233953 -52.1228
lclavicle -2.08724e-015 0
lhumerus -64.9923 16.0793 62.5772
lradius 25.6861
lwrist -8.5963
lhand -23.2611 32.1683
lfingers 7.12502
lthumb 3.1909 62.1242
rfemur 10.0989 14.6393 35.4946
rtibia -2.21805
rfoot -71.0792 -18.8874
rtoes 24.3228
lfemur -29.0197 -6.49096 -17.1304
ltibia 19.2755
lfoot -38.5865 5.37736
ltoes -36.5938
328
root 37.2113 15.7443 4.12532 364.896 248.881 370.01
lowerback 11.0903 0.86296 -2.98442
upperback -10.6493 1.05644 6.33453
thorax -18.9265 1.34051 9.00327
lowerneck -16.3216 3.21272 0.749752
upperneck 31.309 6.11621 -8.09361
head 13.6405 1.23015 -2.44076
rclavicle -2.45499e-014 4.13472e-014
rhumerus -52.0038 29.6868 -77.4755
rradius 40.282
rwrist -15.0299
rhand -26.894 -21.4661
rfingers 7.12502
rthumb -0.317697 -51.4456
lclavicle -2.45499e-014 4.13472e-014
lhumerus -65.688 16.8841 61.969
lradius 24.7338
lwrist -10.6786
lhand -22.4453 32.0533
lfingers 7.12502
lthumb 3.97875 61.9959
rfemur 9.46031 11.3501 33.1742
rtibia 0.0197886
rfoot -67.9989 -18.5832
rtoes 25.1223
lfemur -28.1973 -6.35669 -18.9333
ltibia 19.5521
lfoot -38.0002 3.19685
ltoes -35.0759
329
root 36.9997 15.7334 4.19897 366.285 249.764 368.313
lowerback 10.6742 0.773524 -3.82013
upperback -10.6335 0.777549 6.33627
thorax -18.6038 1.31597 9.54818
lowerneck -16.4233 3.2609 0.721856
upperneck 31.0931 6.16359 -7.92044
head 13.5627 1.29035 -2.34702
rclavicle -3.26007e-014 1.59028e-014
rhumerus -51.8449 30.183 -77.4841
rradius 41.5247
rwrist -16.4258
rhand -26.9563 -21.0388
rfingers 7.12502
rthumb -0.377925 -51.0182
lclavicle -3.26007e-014 1.59028e-014
lhumerus -66.2676 17.6049 61.3893
lradius 23.9488
lwrist -12.2062
lhand -21.6577 32.2311
lfingers 7.12502
lthumb 4.7393 62.1581
rfemur 8.29214 7.60993 30.6958
rtibia 3.30861
rfoot -64.2298 -18.832
rtoes 24.9119
lfemur -27.0201 -6.27174 -20.7372
ltibia 19.1565
lfoot -37.0697 1.18463
ltoes -33.1774
330
root 36.7958 15.7323 4.27541 367.588 250.862 366.659
lowerback 10.5308 0.597093 -4.43416
upperback -10.6706 0.419206 6.30355
thorax -18.5009 1.2333 9.95812
lowerneck -16.544 3.2796 0.770949
upperneck 30.9815 6.17247 -7.84207
head 13.539 1.32184 -2.31593
rclavicle 3.67752e-015 -2.8625e-014
rhumerus -51.8119 30.6996 -77.7152
rradius 42.5696
rwrist -17.552
rhand -27.074 -21.0077
rfingers 7.12502
rthumb -0.491534 -50.9869
lclavicle 3.67752e-015 -2.8625e-014
lhumerus -66.6065 18.0919 61.0782
lradius 23.3006
lwrist -13.1492
lhand -20.7225 32.6633
lfingers 7.12502
lthumb 5.64223 62.5682
rfemur 6.77764 3.88069 28.2389
rtibia 7.4596
rfoot -60.2501 -19.2148
rtoes 25.0512
lfemur -25.438 -6.45976 -22.465
ltibia 18.0407
lfoot -36.3213 -1.13709
ltoes -31.2158
331
root 36.6028 15.7419 4.35298 368.574 252.155 365.203
lowerback 10.8422 0.381761 -4.84033
upperback -10.7696 0.0367076 6.25773
thorax -18.7689 1.13708 10.2689
lowerneck -16.6047 3.24267 0.762603
upperneck 30.9756 6.08475 -7.67639
head 13.5356 1.31056 -2.26057
rclavicle 5.97348e-014 -5.24792e-014
rhumerus -51.9229 31.0788 -78.058
rradius 43.3833
rwrist -18.277
rhand -26.8789 -20.8323
rfingers 7.12502
rthumb -0.303106 -50.8118
lclavicle 5.97348e-014 -5.24792e-014
lhumerus -66.8063 18.3438 61.059
lradius 22.7642
lwrist -14.084
lhand -19.8602 32.8284
lfingers 7.12502
lthumb 6.47473 62.7094
rfemur 5.0464 0.439338 25.9874
rtibia 12.4068
rfoot -56.3707 -20.4464
rtoes 27.3585
lfemur -23.6215 -6.87252 -23.9646
ltibia 16.6905
lfoot -35.8064 -1.37983
ltoes -32.103
332
root 36.4164 15.752 4.42686 369.57 253.463 363.63
lowerback 11.3385 0.171945 -5.26739
upperback -10.8469 -0.347004 6.22768
thorax -19.1322 1.05615 10.6267
lowerneck -16.6442 3.21277 0.71064
upperneck 31.0073 6.00663 -7.47116
head 13.5415 1.30153 -2.18185
rclavicle 1.05356e-014 6.20208e-014
rhumerus -52.009 31.2752 -78.4098
rradius 43.9334
rwrist -18.49
rhand -26.5731 -20.9403
rfingers 7.12502
rthumb -0.00781875 -50.9201
lclavicle 1.05356e-014 6.20208e-014
lhumerus -66.8149 18.5903 61.1394
lradius 22.3274
lwrist -14.9479
lhand -19.3695 32.4622
lfingers 7.12502
lthumb 6.94843 62.3282
rfemur 3.17578 -2.384 23.9804
rtibia 17.9407
rfoot -52.3036 -22.3603
rtoes 32.4621
lfemur -21.7004 -7.12918 -25.3676
ltibia 15.3702
lfoot -34.6006 -4.81342
ltoes -27.6548
333
root 36.234 15.7573 4.49354 371.141 254.646 361.476
lowerback 11.7701 -0.00903571 -5.88206
upperback -11.0904 -0.708096 6.31174
thorax -19.1971 0.956894 10.9663
lowerneck -16.6201 3.18373 0.681203
upperneck 30.9847 5.94998 -7.37369
head 13.5175 1.2921 -2.14561
rclavicle -3.43897e-014 -4.45278e-014
rhumerus -52.0241 31.4303 -78.8345
rradius 44.27
rwrist -18.2802
rhand -26.308 -21.785
rfingers 7.12502
rthumb 0.248263 -51.7646
lclavicle -3.43897e-014 -4.45278e-014
lhumerus -66.5003 18.8725 61.2542
lradius 21.9577
lwrist -15.4802
lhand -18.903 32.2457
lfingers 7.12502
lthumb 7.39881 62.0963
rfemur 1.0926 -4.73421 22.1241
rtibia 23.6174
rfoot -47.4282 -24.7841
rtoes 33.0606
lfemur -19.7893 -7.27666 -26.8318
ltibia 14.1407
lfoot -33.6574 -6.47266
ltoes -25.9597
334
root 36.0533 15.7618 4.55172 372.958 255.75 359.107
lowerback 12.1472 -0.164886 -6.5456
upperback -11.1121 -1.07088 6.30736
thorax -19.3819 0.912798 11.4816
lowerneck -16.6039 3.09485 0.601359
upperneck 30.9376 5.82759 -7.30336
head 13.4811 1.2448 -2.12164
rclavicle 9.93923e-016 -7.4743e-014
rhumerus -52.1604 31.6915 -79.3456
rradius 44.5652
rwrist -18.018
rhand -26.1408 -22.8376
rfingers 7.12502
rthumb 0.40972 -52.8169
lclavicle 9.93923e-016 -7.4743e-014
lhumerus -65.8957 18.8946 61.8864
lradius 21.8986
lwrist -15.5677
lhand -17.8655 32.8591
lfingers 7.12502
lthumb 8.40015 62.6721
rfemur -0.935032 -6.54113 20.6395
rtibia 28.5725
rfoot -41.867 -29.1602
rtoes 22.0264
lfemur -17.9088 -7.67373 -28.2126
ltibia 13.006
lfoot -33.3238 -7.4036
ltoes -26.0454
335
root 35.875 15.7659 4.59947 374.917 256.743 356.565
lowerback 12.5466 -0.250961 -7.35536
upperback -11.0929 -1.36652 6.3588
thorax -19.5399 0.92589 12.1358
lowerneck -16.6332 3.00067 0.406778
upperneck 30.9578 5.71672 -7.17121
head 13.4785 1.19291 -2.05313
rclavicle 3.61788e-014 -3.02153e-014
rhumerus -52.4331 31.9939 -79.8581
rradius 44.7521
rwrist -17.8948
rhand -26.0856 -22.1415
rfingers 7.12502
rthumb 0.463115 -52.1207
lclavicle 3.61788e-014 -3.02153e-014
lhumerus -65.0527 18.7081 63.0313
lradius 22.1679
lwrist -15.2619
lhand -17.5333 32.8584
lfingers 7.12502
lthumb 8.72076 62.6582
rfemur -2.65822 -7.51993 19.6105
rtibia 32.2371
rfoot -33.7706 -29.2268
rtoes 16.411
lfemur -15.9284 -8.32476 -29.4882
ltibia 11.8225
lfoot -33.0876 -8.91953
ltoes -24.6009
